PathFileType	3	(X/Y/Z)	D:\VICON_DB\Goncalves\Pilot01\09-03-2026\bw_sq_120_02.trc
DataRate	CameraRate	NumFrames	NumMarkers	Units	OrigDataRate	OrigDataStartFrame	OrigNumFrames
200.0	200.0	5	34	mm	200.0	1	787	
Frame#	Time	LASI			RASI			LPSI			RPSI			LTHI			LTHAP			LTHAD			LKNE			LKNM			LTIB			LTIAP			LTIAD			LANK			LMED			LHEE			LTOE			LFMH			LSMH			LVMH			RTHI			RTHAP			RTHAD			RKNE			RKNM			RTIB			RTIAP			RTIAD			RANK			RMED			RHEE			RTOE			RFMH			RSMH			RVMH			
		X1	Y1	Z1	X2	Y2	Z2	X3	Y3	Z3	X4	Y4	Z4	X5	Y5	Z5	X6	Y6	Z6	X7	Y7	Z7	X8	Y8	Z8	X9	Y9	Z9	X10	Y10	Z10	X11	Y11	Z11	X12	Y12	Z12	X13	Y13	Z13	X14	Y14	Z14	X15	Y15	Z15	X16	Y16	Z16	X17	Y17	Z17	X18	Y18	Z18	X19	Y19	Z19	X20	Y20	Z20	X21	Y21	Z21	X22	Y22	Z22	X23	Y23	Z23	X24	Y24	Z24	X25	Y25	Z25	X26	Y26	Z26	X27	Y27	Z27	X28	Y28	Z28	X29	Y29	Z29	X30	Y30	Z30	X31	Y31	Z31	X32	Y32	Z32	X33	Y33	Z33	X34	Y34	Z34	
1	0	114.04846	896.3006	-1081.5201	111.63824	897.3902	-1344.3362				295.03983	930.03497	-1267.6763	129.59233	697.58246	-1021.3817	146.13483	769.28461	-1023.1538	179.53383	637.44916	-994.00055	225.07475	479.38928	-995.5177				272.18753	290.62869	-956.03766	199.97881	356.47354	-1006.2965	226.36186	259.21814	-967.12854	291.12872	73.679062	-946.38934				325.2269	61.848923	-1003.5419	207.38223	71.972397	-952.35687	149.37985	45.368607	-973.93933				169.88708	25.273951	-895.82483	167.74478	632.38971	-1420.8348	122.33592	755.0556	-1387.496	104.3628	661.63873	-1383.9761	217.93123	495.86371	-1415.6228				244.9325	304.58151	-1454.6194	194.38745	347.62582	-1403.5229	200.4583	267.2189	-1416.0554	280.87268	64.450592	-1452.577				310.47455	58.504341	-1406.9165	186.16595	69.127686	-1451.954	132.905	49.461262	-1433.9797				156.04688	17.475855	-1504.5629
2	0.005	114.02092	896.29767	-1081.5325	111.62483	897.39355	-1344.349				296.18958	928.76398	-1266.2312	129.56691	697.57648	-1021.3928	146.10565	769.28143	-1023.162	179.50471	637.44684	-994.00977	225.05603	479.38736	-995.526				272.17584	290.6315	-956.03748	199.966	356.47073	-1006.3051	226.35287	259.21725	-967.13293	291.12222	73.682533	-946.39001				325.22589	61.849567	-1003.541	207.39005	71.973282	-952.3562	149.37894	45.369572	-973.94244				169.88794	25.276197	-895.82495	167.73102	632.38916	-1420.8433	122.31982	755.05652	-1387.5063	104.34558	661.63733	-1383.9878	217.91954	495.86163	-1415.6279				244.92461	304.58075	-1454.6229	194.38557	347.62296	-1403.5214	200.45039	267.21866	-1416.0581	280.87286	64.451241	-1452.5767				310.4704	58.506073	-1406.9147	186.16347	69.127983	-1451.957	132.90962	49.463844	-1433.9766				156.04623	17.473579	-1504.5638
3	0.01	113.98914	896.29425	-1081.5463	111.60861	897.39758	-1344.3635				297.31091	927.52429	-1264.8153	129.53801	697.56964	-1021.4057	146.07231	769.27802	-1023.1718	179.47148	637.4444	-994.02014	225.03442	479.38528	-995.53522				272.16238	290.63498	-956.03705	199.95171	356.46771	-1006.3144	226.3425	259.21637	-967.13812	291.11514	73.686592	-946.39062				325.22464	61.850182	-1003.5399	207.39728	71.974686	-952.35602	149.37758	45.371101	-973.94611				169.88902	25.278934	-895.82507	167.71483	632.38867	-1420.8529	122.30069	755.05768	-1387.5184	104.32562	661.6355	-1384.0012	217.90584	495.85953	-1415.634				244.91534	304.5799	-1454.627	194.38249	347.62033	-1403.52	200.44121	267.21844	-1416.061	280.87299	64.452194	-1452.5764				310.46561	58.508133	-1406.9124	186.16051	69.12841	-1451.9607	132.91487	49.466866	-1433.9727				156.04547	17.470943	-1504.5649
4	0.015	113.95335	896.29016	-1081.5614	111.58946	897.40247	-1344.3794				298.35919	926.36481	-1263.484	129.506	697.56232	-1021.4201	146.03519	769.27417	-1023.1829	179.4344	637.44189	-994.03149	225.01007	479.38297	-995.54541				272.14716	290.63907	-956.03619	199.93619	356.46469	-1006.3244	226.33076	259.21548	-967.14398	291.10739	73.691284	-946.39081				325.22324	61.850731	-1003.5388	207.40352	71.976608	-952.35657	149.37569	45.373249	-973.95038				169.89027	25.282167	-895.82507	167.69629	632.38812	-1420.864	122.27855	755.0592	-1387.532	104.30296	661.63336	-1384.0164	217.89006	495.85754	-1415.6406				244.9048	304.57892	-1454.6312	194.37781	347.61823	-1403.519	200.43088	267.21823	-1416.0643	280.87314	64.453506	-1452.5764				310.46005	58.510517	-1406.9092	186.15701	69.128944	-1451.9647	132.92068	49.470291	-1433.9688				156.04456	17.467936	-1504.5665
5	0.02	113.91386	896.28564	-1081.5774	111.56728	897.40802	-1344.3965				299.30353	925.31891	-1262.2754	129.47122	697.55457	-1021.4357	145.99469	769.2699	-1023.1953	179.39406	637.43945	-994.04352	224.98318	479.38046	-995.55621				272.13037	290.64377	-956.03522	199.91963	356.46149	-1006.3348	226.31786	259.21448	-967.15045	291.09909	73.696579	-946.3905				325.22168	61.851128	-1003.5377	207.40852	71.978981	-952.35773	149.37325	45.376057	-973.9552				169.89171	25.285839	-895.82501	167.67543	632.38745	-1420.8761	122.25345	755.06097	-1387.5471	104.27776	661.63092	-1384.0332	217.87228	495.85571	-1415.6476				244.89302	304.57797	-1454.6356	194.37117	347.61685	-1403.5187	200.41948	267.21796	-1416.068	280.8732	64.455177	-1452.5765				310.45392	58.513203	-1406.9053	186.15309	69.12957	-1451.9694	132.92688	49.47403	-1433.9646				156.04358	17.464561	-1504.5686
